# xmcd CD database file
#
# Track frame offsets:
#	150
#	13673
#	24251
#	36955
#	49756
#	63196
#	133371
#	147069
#	160862
#	175565
#	190741
#	206150
#	222910
#	240993
#	260988
#
# Disc length: 3769 seconds
#
# Revision: 0
# Processed by: cddbd v1.5.2PL0 Copyright (c) Steve Scherf et al.
# Submitted via: CDex 1.51
#
DISCID=d30eb70f
DTITLE=Miles Davis - Antology 2
DYEAR=2013
DGENRE=Jazz
TTITLE0=Boplicity
TTITLE1=Morpheus
TTITLE2=The way you look tonight
TTITLE3=Down
TTITLE4=Blue room
TTITLE5=All of you
TTITLE6=Whispering
TTITLE7=Smooch
TTITLE8=My old flame
TTITLE9=That old devil moon
TTITLE10=When lights are low
TTITLE11=It never entered my mind
TTITLE12=Four
TTITLE13=Miles ahead
TTITLE14=Four plus one more
EXTD=YEAR: 2013
EXTT0=
EXTT1=
EXTT2=
EXTT3=
EXTT4=
EXTT5=
EXTT6=
EXTT7=
EXTT8=
EXTT9=
EXTT10=
EXTT11=
EXTT12=
EXTT13=
EXTT14=
PLAYORDER=
